<?xml version="1.0" encoding="UTF-8" standalone="no"?>
<!DOCTYPE svg PUBLIC "-//W3C//DTD SVG 1.1//EN"
 "http://www.w3.org/Graphics/SVG/1.1/DTD/svg11.dtd">
<!-- Generated by graphviz version 13.1.1 (20250719.2154)
 -->
<!-- Title: TransactionFlow Pages: 1 -->
<svg width="835pt" height="312pt"
 viewBox="0.00 0.00 835.00 312.00" xmlns="http://www.w3.org/2000/svg" xmlns:xlink="http://www.w3.org/1999/xlink">
<g id="graph0" class="graph" transform="scale(1 1) rotate(0) translate(4 307.82)">
<title>TransactionFlow</title>
<polygon fill="white" stroke="none" points="-4,4 -4,-307.82 830.75,-307.82 830.75,4 -4,4"/>
<text xml:space="preserve" text-anchor="middle" x="413.38" y="-284.62" font-family="Arial Bold" font-size="16.00">Transaction Flow: Businesses → Advertisers → Platform → Creators → Users</text>
<!-- businesses -->
<g id="node1" class="node">
<title>businesses</title>
<polygon fill="#e8f4fd" stroke="#2196f3" points="85,-36 0,-36 0,0 85,0 85,-36"/>
<text xml:space="preserve" text-anchor="middle" x="42.5" y="-12.57" font-family="Arial" font-size="14.00">Businesses</text>
</g>
<!-- advertisers -->
<g id="node2" class="node">
<title>advertisers</title>
<polygon fill="#fff3e0" stroke="#ff9800" points="263.75,-70 180.25,-70 180.25,-34 263.75,-34 263.75,-70"/>
<text xml:space="preserve" text-anchor="middle" x="222" y="-46.58" font-family="Arial" font-size="14.00">Advertisers</text>
</g>
<!-- businesses&#45;&gt;advertisers -->
<g id="edge1" class="edge">
<title>businesses&#45;&gt;advertisers</title>
<path fill="none" stroke="#00dd00" stroke-width="5" d="M85.12,-25.97C108.68,-30.49 138.49,-36.19 164.18,-41.12"/>
<polygon fill="#00dd00" stroke="#00dd00" stroke-width="5" points="163.18,-45.38 173.83,-42.96 164.83,-36.79 163.18,-45.38"/>
<text xml:space="preserve" text-anchor="middle" x="132.62" y="-42.48" font-family="Arial" font-size="14.00">Ad Spend</text>
</g>
<!-- platform -->
<g id="node3" class="node">
<title>platform</title>
<polygon fill="#f3e5f5" stroke="#9c27b0" points="451.5,-103.75 384.5,-103.75 384.5,-64.25 451.5,-64.25 451.5,-103.75"/>
<text xml:space="preserve" text-anchor="middle" x="418" y="-86.45" font-family="Arial" font-size="14.00">Creation</text>
<text xml:space="preserve" text-anchor="middle" x="418" y="-70.7" font-family="Arial" font-size="14.00">Platform</text>
</g>
<!-- advertisers&#45;&gt;platform -->
<g id="edge2" class="edge">
<title>advertisers&#45;&gt;platform</title>
<path fill="none" stroke="#00dd00" stroke-width="3" d="M264.14,-58.79C295.2,-63.91 337.85,-70.94 370.2,-76.28"/>
<polygon fill="#00dd00" stroke="#00dd00" stroke-width="3" points="369.35,-79.69 379.79,-77.86 370.49,-72.78 369.35,-79.69"/>
<text xml:space="preserve" text-anchor="middle" x="324.12" y="-77.87" font-family="Arial" font-size="14.00">Platform Fees</text>
</g>
<!-- creators -->
<g id="node4" class="node">
<title>creators</title>
<polygon fill="#e8f5e8" stroke="#4caf50" points="659.5,-150 591.75,-150 591.75,-114 659.5,-114 659.5,-150"/>
<text xml:space="preserve" text-anchor="middle" x="625.62" y="-126.58" font-family="Arial" font-size="14.00">Creators</text>
</g>
<!-- platform&#45;&gt;creators -->
<g id="edge3" class="edge">
<title>platform&#45;&gt;creators</title>
<path fill="none" stroke="#00dd00" d="M451.58,-91.61C486.42,-99.74 541.86,-112.68 580.58,-121.72"/>
<polygon fill="#00dd00" stroke="#00dd00" points="579.51,-125.06 590.04,-123.93 581.1,-118.25 579.51,-125.06"/>
<text xml:space="preserve" text-anchor="middle" x="521.62" y="-121.58" font-family="Arial" font-size="14.00">Revenue &quot;Share&quot;</text>
</g>
<!-- users -->
<g id="node5" class="node">
<title>users</title>
<polygon fill="#ffebee" stroke="#f44336" points="826.75,-150 772.75,-150 772.75,-114 826.75,-114 826.75,-150"/>
<text xml:space="preserve" text-anchor="middle" x="799.75" y="-126.58" font-family="Arial" font-size="14.00">Users</text>
</g>
<!-- creators&#45;&gt;users -->
<g id="edge4" class="edge">
<title>creators&#45;&gt;users</title>
<path fill="none" stroke="#bb11bb" d="M628.64,-150.28C632.66,-176.88 644.39,-225.44 677.5,-247 706.27,-265.73 726.47,-266.46 754.75,-247 782.52,-227.89 792.77,-188.7 796.55,-161.41"/>
<polygon fill="#bb11bb" stroke="#bb11bb" points="800,-162.02 797.67,-151.68 793.05,-161.22 800,-162.02"/>
<text xml:space="preserve" text-anchor="middle" x="716.12" y="-263.77" font-family="Arial" font-size="14.00">Content</text>
</g>
<!-- creators&#45;&gt;users -->
<g id="edge5" class="edge">
<title>creators&#45;&gt;users</title>
<path fill="none" stroke="#bb0000" stroke-width="3" d="M632.99,-150.31C640.46,-168.67 654.81,-195.88 677.5,-208 707.79,-224.17 725.01,-225.15 754.75,-208 771.3,-198.46 782.19,-180.05 789,-163.74"/>
<polygon fill="#bb0000" stroke="#bb0000" stroke-width="3" points="792.23,-165.08 792.4,-154.49 785.66,-162.67 792.23,-165.08"/>
<text xml:space="preserve" text-anchor="middle" x="716.12" y="-222.95" font-family="Arial" font-size="14.00">banner ADS</text>
</g>
<!-- creators&#45;&gt;users -->
<g id="edge6" class="edge">
<title>creators&#45;&gt;users</title>
<path fill="none" stroke="#bb0000" stroke-width="2" d="M645.77,-150.36C654.68,-157.66 665.87,-165.22 677.5,-169 710.15,-179.62 722.49,-180.76 754.75,-169 761.15,-166.67 767.26,-162.95 772.79,-158.75"/>
<polygon fill="#bb0000" stroke="#bb0000" stroke-width="2" points="775.01,-161.46 780.32,-152.29 770.45,-156.14 775.01,-161.46"/>
<text xml:space="preserve" text-anchor="middle" x="716.12" y="-179.85" font-family="Arial" font-size="14.00">sidebar ADS</text>
</g>
<!-- creators&#45;&gt;users -->
<g id="edge7" class="edge">
<title>creators&#45;&gt;users</title>
<path fill="none" stroke="#bb0000" stroke-width="4" d="M659.81,-132C687.38,-132 726.76,-132 756.57,-132"/>
<polygon fill="#bb0000" stroke="#bb0000" stroke-width="4" points="756.37,-135.5 766.37,-132 756.37,-128.5 756.37,-135.5"/>
<text xml:space="preserve" text-anchor="middle" x="716.12" y="-134.45" font-family="Arial" font-size="14.00">video ADS</text>
</g>
<!-- creators&#45;&gt;users -->
<g id="edge8" class="edge">
<title>creators&#45;&gt;users</title>
<path fill="none" stroke="#bb0000" d="M659.77,-117.12C665.57,-115.1 671.63,-113.35 677.5,-112.25 711.25,-105.93 721.18,-105.06 754.75,-112.25 757.05,-112.74 759.38,-113.37 761.7,-114.08"/>
<polygon fill="#bb0000" stroke="#bb0000" points="760.36,-117.32 770.95,-117.49 762.78,-110.75 760.36,-117.32"/>
<text xml:space="preserve" text-anchor="middle" x="716.12" y="-114.7" font-family="Arial" font-size="14.00">email ADS</text>
</g>
<!-- creators&#45;&gt;users -->
<g id="edge9" class="edge">
<title>creators&#45;&gt;users</title>
<path fill="none" stroke="#bb0000" stroke-width="5" d="M641.5,-113.61C650.69,-103.75 663.41,-92.56 677.5,-87.25 709.62,-75.13 723.09,-73.98 754.75,-87.25 762.59,-90.54 769.73,-95.97 775.88,-101.95"/>
<polygon fill="#bb0000" stroke="#bb0000" stroke-width="5" points="772.3,-104.5 782.23,-109.03 778.81,-98.66 772.3,-104.5"/>
<text xml:space="preserve" text-anchor="middle" x="716.12" y="-89.7" font-family="Arial" font-size="14.00">popup ADS</text>
</g>
<!-- users&#45;&gt;businesses -->
<g id="edge11" class="edge">
<title>users&#45;&gt;businesses</title>
<path fill="none" stroke="#00dd00" stroke-width="3" d="M794.48,-113.79C788.8,-93.45 776.79,-60.92 754.75,-42 709.48,-3.14 686.28,-2 626.62,-2 221,-2 221,-2 221,-2 180.25,-2 134.46,-6.23 99.59,-10.35"/>
<polygon fill="#00dd00" stroke="#00dd00" stroke-width="3" points="99.37,-6.85 89.87,-11.54 100.22,-13.79 99.37,-6.85"/>
<text xml:space="preserve" text-anchor="middle" x="418" y="-4.45" font-family="Arial" font-size="14.00">Buy stuff</text>
</g>
<!-- users&#45;&gt;creators -->
<g id="edge10" class="edge">
<title>users&#45;&gt;creators</title>
<path fill="none" stroke="black" stroke-dasharray="1,5" d="M793.58,-113.63C787.5,-95.89 775.49,-70.03 754.75,-58.25 724.89,-41.3 707.9,-42.29 677.5,-58.25 659.42,-67.74 646.51,-86.88 638.22,-103.29"/>
<polygon fill="black" stroke="black" points="635.13,-101.63 634.07,-112.17 641.47,-104.6 635.13,-101.63"/>
<text xml:space="preserve" text-anchor="middle" x="716.12" y="-60.7" font-family="Arial" font-size="14.00">Engagement</text>
</g>
</g>
</svg>
